<svg width="279" height="331" viewBox="0 0 279 331" fill="none" xmlns="http://www.w3.org/2000/svg">
<g filter="url(#filter0_d_246:190)">
<rect x="50.9678" y="14.2603" width="177.688" height="222.11" stroke="white" stroke-width="11.1055" shape-rendering="crispEdges"/>
</g>
<line x1="67.6267" y1="191.948" x2="205.018" y2="191.948" stroke="white" stroke-width="11.1055"/>
<line x1="67.6267" y1="103.105" x2="205.018" y2="103.105" stroke="white" stroke-width="11.1055"/>
<line x1="67.6267" y1="58.6824" x2="205.018" y2="58.6824" stroke="white" stroke-width="11.1055"/>
<line x1="67.6267" y1="147.526" x2="205.018" y2="147.526" stroke="white" stroke-width="11.1055"/>
<path fill-rule="evenodd" clip-rule="evenodd" d="M216.309 56.13L251.305 76.4901L255.346 69.4371C257.577 65.5419 256.253 60.5611 252.387 58.3122L231.39 46.0961C227.525 43.8472 222.582 45.1818 220.35 49.077L216.309 56.13ZM212.268 63.1829L247.264 83.543L198.773 168.178L163.777 147.818L212.268 63.1829ZM160.844 186.752C160.949 189.759 164.142 191.617 166.779 190.205L194.732 175.231L159.736 154.871L160.844 186.752Z" fill="white"/>
<defs>
<filter id="filter0_d_246:190" x="0.993038" y="8.70758" width="277.637" height="322.06" filterUnits="userSpaceOnUse" color-interpolation-filters="sRGB">
<feFlood flood-opacity="0" result="BackgroundImageFix"/>
<feColorMatrix in="SourceAlpha" type="matrix" values="0 0 0 0 0 0 0 0 0 0 0 0 0 0 0 0 0 0 127 0" result="hardAlpha"/>
<feOffset dy="44.422"/>
<feGaussianBlur stdDeviation="22.211"/>
<feComposite in2="hardAlpha" operator="out"/>
<feColorMatrix type="matrix" values="0 0 0 0 0 0 0 0 0 0 0 0 0 0 0 0 0 0 0.25 0"/>
<feBlend mode="normal" in2="BackgroundImageFix" result="effect1_dropShadow_246:190"/>
<feBlend mode="normal" in="SourceGraphic" in2="effect1_dropShadow_246:190" result="shape"/>
</filter>
</defs>
</svg>
